<svg width="30" height="30" viewBox="0 0 30 30" fill="none" xmlns="http://www.w3.org/2000/svg">
<path d="M14.061 29.4554C13.7079 29.0924 13.5229 28.6304 13.5062 28.0693C13.4896 27.5082 13.6584 27.0462 14.0128 26.6832L23.451 16.9802H1.92617C1.38042 16.9802 0.922638 16.7901 0.552815 16.4099C0.182992 16.0297 -0.00127744 15.5597 6.66491e-06 15C6.66491e-06 14.4389 0.184918 13.9683 0.554741 13.5881C0.924564 13.2079 1.38171 13.0185 1.92617 13.0198H23.451L14.0128 3.31683C13.6597 2.95379 13.4908 2.49175 13.5062 1.93069C13.5217 1.36964 13.7066 0.90759 14.061 0.544554C14.4141 0.181517 14.8636 0 15.4093 0C15.955 0 16.4045 0.181517 16.7576 0.544554L29.4703 13.6139C29.6629 13.7789 29.7997 13.9855 29.8805 14.2337C29.9614 14.4818 30.0013 14.7373 30 15C30 15.264 29.9602 15.5116 29.8805 15.7426C29.8009 15.9736 29.6642 16.1881 29.4703 16.3861L16.7576 29.4554C16.4045 29.8185 15.955 30 15.4093 30C14.8636 30 14.4141 29.8185 14.061 29.4554Z" fill="#F3F6F9"/>
</svg>
